HIERARCHY
ROOT Hips
{
	OFFSET 0.000000 0.000000 0.000000
	CHANNELS 6 Xposition Yposition Zposition Xrotation Yrotation Zrotation
	JOINT Chest
	{
		OFFSET 0.000000 1.136021 10.224184
		CHANNELS 3 Xrotation Yrotation Zrotation
		JOINT Chest2
		{
			OFFSET 0.000000 -0.000000 11.333265
			CHANNELS 3 Xrotation Yrotation Zrotation
			JOINT Chest3
			{
				OFFSET 0.000000 0.005192 10.347984
				CHANNELS 3 Xrotation Yrotation Zrotation
				JOINT Chest4
				{
					OFFSET 0.000000 0.005197 10.336430
					CHANNELS 3 Xrotation Yrotation Zrotation
					JOINT Neck
					{
						OFFSET 0.000000 -0.000001 14.463490
						CHANNELS 3 Xrotation Yrotation Zrotation
						JOINT Head
						{
							OFFSET 0.000000 -0.011165 9.624710
							CHANNELS 3 Xrotation Yrotation Zrotation
							End Site
							{
								OFFSET 0.000000 0.000000 0.099998
							}
						}
					}
					JOINT RightCollar
					{
						OFFSET -3.157643 -0.000000 8.110622
						CHANNELS 3 Xrotation Yrotation Zrotation
						JOINT RightShoulder
						{
							OFFSET -14.841243 0.000000 0.000000
							CHANNELS 3 Xrotation Yrotation Zrotation
							JOINT RightElbow
							{
								OFFSET -31.724693 0.000000 0.000000
								CHANNELS 3 Xrotation Yrotation Zrotation
								JOINT RightWrist
								{
									OFFSET -25.942017 0.000000 0.000000
									CHANNELS 3 Xrotation Yrotation Zrotation
									End Site
									{
										OFFSET 0.000000 0.000000 0.099998
									}
								}
							}
						}
					}
					JOINT LeftCollar
					{
						OFFSET 3.157643 -0.000000 8.110622
						CHANNELS 3 Xrotation Yrotation Zrotation
						JOINT LeftShoulder
						{
							OFFSET 14.841243 0.000000 0.000000
							CHANNELS 3 Xrotation Yrotation Zrotation
							JOINT LeftElbow
							{
								OFFSET 31.724693 0.000000 0.000000
								CHANNELS 3 Xrotation Yrotation Zrotation
								JOINT LeftWrist
								{
									OFFSET 25.942017 0.000000 0.000000
									CHANNELS 3 Xrotation Yrotation Zrotation
									End Site
									{
										OFFSET 0.000000 0.000000 0.099998
									}
								}
							}
						}
					}
				}
			}
		}
	}
	JOINT RightHip
	{
		OFFSET -8.427108 0.001539 0.013854
		CHANNELS 3 Xrotation Yrotation Zrotation
		JOINT RightKnee
		{
			OFFSET 0.000000 0.001229 -43.437389
			CHANNELS 3 Xrotation Yrotation Zrotation
			JOINT RightAnkle
			{
				OFFSET 0.000000 0.002070 -42.439701
				CHANNELS 3 Xrotation Yrotation Zrotation
				JOINT RightToe
				{
					OFFSET 0.000000 -19.371378 -8.481461
					CHANNELS 3 Xrotation Yrotation Zrotation
					End Site
					{
						OFFSET 0.000000 0.000000 0.099998
					}
				}
			}
		}
	}
	JOINT LeftHip
	{
		OFFSET 8.427108 0.001285 0.011561
		CHANNELS 3 Xrotation Yrotation Zrotation
		JOINT LeftKnee
		{
			OFFSET 0.000000 0.001229 -43.437389
			CHANNELS 3 Xrotation Yrotation Zrotation
			JOINT LeftAnkle
			{
				OFFSET 0.000000 0.002070 -42.439705
				CHANNELS 3 Xrotation Yrotation Zrotation
				JOINT LeftToe
				{
					OFFSET 0.000000 -19.371378 -8.481461
					CHANNELS 3 Xrotation Yrotation Zrotation
					End Site
					{
						OFFSET 0.000000 0.000000 0.099998
					}
				}
			}
		}
	}
}
MOTION
Frames: 16
Frame Time: 0.004184
-310.765350 -0.688162 96.406082 -2.566768 1.751218 169.409319 1.006824 1.136977 -0.808140 -5.381015 0.540664 -0.303369 0.439418 0.540696 -0.303314 6.166059 0.380567 -0.267145 15.938781 -0.378672 -0.967641 -6.427898 -0.341270 -1.898681 2.205835 -7.775898 1.395444 -40.910719 -69.440594 -41.370459 24.708839 -27.438451 68.142502 -4.534612 -1.759480 18.066055 2.978334 5.256373 1.102596 -38.985699 63.801685 36.442638 27.597203 10.083036 -67.612370 -1.646013 -1.863435 -13.027906 -1.468836 4.887536 -2.907537 0.506374 -0.789546 -0.130657 -2.141164 -3.113799 3.179844 -0.000002 0.000000 0.000001 -4.417113 -2.032871 2.856919 7.922654 0.497241 -0.166295 -4.447800 5.182830 -1.336084 0.000001 0.000000 -0.000000 
-310.764435 -0.680758 96.402824 -2.559547 1.746128 169.405453 1.006338 1.129729 -0.814813 -5.381229 0.537776 -0.306663 0.439202 0.537807 -0.306608 6.165894 0.378163 -0.269384 15.890427 -0.377414 -0.962579 -6.517712 -0.340133 -1.889167 2.207642 -7.769458 1.388085 -40.907099 -69.438374 -41.380804 24.701936 -27.442604 68.135577 -4.533731 -1.770515 18.070826 2.974848 5.263337 1.095161 -38.972571 63.799943 36.423722 27.595095 10.082242 -67.609065 -1.648613 -1.871703 -13.041838 -1.452348 4.903409 -2.907829 0.499506 -0.829697 -0.133179 -2.139018 -3.092318 3.187978 -0.000003 0.000000 -0.000000 -4.406009 -2.048908 2.843077 7.931177 0.528631 -0.158712 -4.471397 5.156004 -1.323451 -0.000001 0.000000 -0.000001 
-310.763458 -0.673328 96.399506 -2.552313 1.740984 169.401764 1.005787 1.122397 -0.821728 -5.381474 0.534862 -0.310067 0.438959 0.534894 -0.310010 6.165707 0.375731 -0.271706 15.841640 -0.376080 -0.957335 -6.608327 -0.338920 -1.879284 2.209403 -7.763066 1.380538 -40.903763 -69.436243 -41.391349 24.695176 -27.446910 68.129040 -4.532955 -1.781683 18.075633 2.971382 5.270324 1.087683 -38.959126 63.798038 36.404594 27.592707 10.081433 -67.605458 -1.651261 -1.879920 -13.055557 -1.435723 4.919497 -2.908208 0.492510 -0.870457 -0.135892 -2.136879 -3.070485 3.196237 -0.000001 -0.000000 0.000000 -4.394900 -2.065308 2.828078 7.939736 0.560784 -0.150441 -4.495243 5.128747 -1.310582 0.000001 0.000000 -0.000001 
-310.762451 -0.665885 96.396172 -2.545093 1.735811 169.398172 1.005195 1.115016 -0.828782 -5.381737 0.531933 -0.313534 0.438698 0.531965 -0.313478 6.165507 0.373284 -0.274072 15.792610 -0.374713 -0.951975 -6.699402 -0.337685 -1.869183 2.211140 -7.756695 1.372886 -40.900600 -69.434159 -41.402025 24.688487 -27.451294 68.122722 -4.532234 -1.792928 18.080467 2.967927 5.277328 1.080182 -38.945500 63.796023 36.385319 27.590151 10.080628 -67.601681 -1.653934 -1.888105 -13.069149 -1.419020 4.935706 -2.908637 0.485442 -0.911570 -0.138720 -2.134738 -3.048446 3.204565 0.000003 0.000000 0.000002 -4.383788 -2.081916 2.812419 7.948312 0.593375 -0.141781 -4.519216 5.101247 -1.297593 0.000002 0.000000 0.000001 
-310.761444 -0.658439 96.392815 -2.537891 1.730625 169.394606 1.004595 1.107625 -0.835869 -5.382001 0.529000 -0.317018 0.438431 0.529033 -0.316963 6.165305 0.370833 -0.276451 15.743518 -0.373348 -0.946577 -6.790592 -0.336479 -1.859005 2.212870 -7.750334 1.365210 -40.897465 -69.432090 -41.412724 24.681824 -27.455718 68.116452 -4.531525 -1.804193 18.085303 2.964473 5.284333 1.072677 -38.931812 63.793987 36.366010 27.587563 10.079822 -67.597849 -1.656608 -1.896294 -13.082711 -1.402297 4.951947 -2.909077 0.478357 -0.952769 -0.141575 -2.132597 -3.026356 3.212911 -0.000001 -0.000000 0.000000 -4.372681 -2.098577 2.796598 7.956888 0.626079 -0.133029 -4.543224 5.073678 -1.284585 0.000000 -0.000000 -0.000001 
-310.760437 -0.651001 96.389481 -2.530669 1.725451 169.390986 1.004015 1.100259 -0.842890 -5.382257 0.526077 -0.320471 0.438175 0.526109 -0.320415 6.165108 0.368391 -0.278806 15.694549 -0.372030 -0.941209 -6.881545 -0.335349 -1.848890 2.214605 -7.743953 1.357587 -40.894221 -69.429979 -41.423339 24.675117 -27.460074 68.110073 -4.530795 -1.815423 18.090120 2.961008 5.291333 1.065187 -38.918220 63.792000 36.346770 27.585058 10.079016 -67.594107 -1.659268 -1.904508 -13.096329 -1.385614 4.968129 -2.909494 0.471309 -0.993795 -0.144372 -2.130465 -3.004366 3.221219 0.000000 0.000000 -0.000000 -4.361574 -2.115134 2.781109 7.965431 0.658569 -0.124485 -4.567151 5.046224 -1.271658 0.000001 0.000000 -0.000001 
-310.759491 -0.643578 96.386177 -2.523436 1.720320 169.387243 1.003482 1.092956 -0.849742 -5.382492 0.523171 -0.323844 0.437941 0.523204 -0.323791 6.164927 0.365968 -0.281106 15.645892 -0.370796 -0.935947 -6.971922 -0.334344 -1.838993 2.216368 -7.737539 1.350094 -40.890785 -69.427807 -41.433799 24.668311 -27.464327 68.103413 -4.529995 -1.826561 18.094896 2.957523 5.298316 1.057731 -38.904857 63.790128 36.327700 27.582756 10.078221 -67.590582 -1.661881 -1.912761 -13.110094 -1.369032 4.984158 -2.909853 0.464355 -1.034382 -0.147041 -2.128337 -2.982631 3.229434 0.000002 0.000000 -0.000000 -4.350477 -2.131431 2.766450 7.973932 0.690523 -0.116445 -4.590896 5.019066 -1.258917 0.000002 0.000000 -0.000000 
-310.758575 -0.636182 96.382935 -2.516216 1.715254 169.383309 1.003025 1.085749 -0.856320 -5.382691 0.520297 -0.327094 0.437740 0.520331 -0.327040 6.164774 0.363579 -0.283313 15.597731 -0.369684 -0.930859 -7.061377 -0.333512 -1.829457 2.218172 -7.731071 1.342814 -40.886991 -69.425519 -41.444007 24.661344 -27.468393 68.096310 -4.529085 -1.837553 18.099609 2.954004 5.305270 1.050334 -38.891866 63.788455 36.308903 27.580773 10.077434 -67.587406 -1.664438 -1.921094 -13.124105 -1.352607 4.999946 -2.910117 0.457549 -1.074272 -0.149492 -2.126202 -2.961298 3.237502 0.000001 -0.000000 0.000001 -4.339387 -2.147312 2.753113 7.982367 0.721611 -0.109211 -4.614352 4.992389 -1.246465 0.000002 -0.000000 -0.000001 
-310.757751 -0.628823 96.379768 -2.508966 1.710277 169.379088 1.002673 1.078677 -0.862523 -5.382845 0.517464 -0.330169 0.437587 0.517498 -0.330118 6.164654 0.361234 -0.285396 15.550256 -0.368732 -0.926022 -7.149562 -0.332895 -1.820430 2.220035 -7.724525 1.335829 -40.882705 -69.423067 -41.453849 24.654159 -27.472221 68.088612 -4.528027 -1.848345 18.104253 2.950440 5.312184 1.043011 -38.879359 63.787041 36.290465 27.579238 10.076654 -67.584708 -1.666907 -1.929518 -13.138446 -1.336401 5.015398 -2.910248 0.450949 -1.113201 -0.151641 -2.124076 -2.940522 3.245364 0.000003 -0.000000 -0.000000 -4.328311 -2.162624 2.741598 7.990721 0.751508 -0.103073 -4.637414 4.966371 -1.234409 0.000001 -0.000000 -0.000001 
-310.756989 -0.621510 96.376709 -2.501714 1.705410 169.374512 1.002455 1.071777 -0.868249 -5.382937 0.514686 -0.333028 0.437495 0.514720 -0.332975 6.164583 0.358944 -0.287318 15.503647 -0.367980 -0.921509 -7.236136 -0.332540 -1.812066 2.221975 -7.717883 1.329215 -40.877849 -69.420438 -41.463288 24.646702 -27.475722 68.080143 -4.526776 -1.858879 18.108802 2.946822 5.319050 1.035784 -38.867509 63.785982 36.272505 27.578262 10.075892 -67.582639 -1.669268 -1.938062 -13.153215 -1.320474 5.030427 -2.910216 0.444608 -1.150909 -0.153405 -2.121947 -2.920455 3.252972 0.000001 -0.000001 -0.000000 -4.317246 -2.177206 2.732398 7.998975 0.779890 -0.098336 -4.659973 4.941195 -1.222843 0.000001 0.000000 0.000001 
-310.756348 -0.614253 96.373772 -2.494432 1.700678 169.369512 1.002400 1.065084 -0.873392 -5.382957 0.511970 -0.335618 0.437475 0.512005 -0.335565 6.164564 0.356723 -0.289045 15.458091 -0.367465 -0.917395 -7.320751 -0.332489 -1.804504 2.224008 -7.711130 1.323052 -40.872224 -69.417569 -41.472157 24.638922 -27.478850 68.070744 -4.525284 -1.869101 18.113226 2.943135 5.325856 1.028671 -38.856437 63.785340 36.255126 27.577971 10.075157 -67.581307 -1.671505 -1.946751 -13.168497 -1.304882 5.044940 -2.909972 0.438585 -1.187129 -0.154709 -2.119813 -2.901245 3.260266 0.000001 0.000000 0.000001 -4.306199 -2.190907 2.726015 8.007111 0.806427 -0.095292 -4.681927 4.917043 -1.211877 0.000003 0.000000 0.000001 
-310.755829 -0.607064 96.370972 -2.487144 1.696104 169.363993 1.002538 1.058636 -0.877853 -5.382891 0.509331 -0.337894 0.437542 0.509366 -0.337841 6.164612 0.354581 -0.290546 15.413778 -0.367222 -0.913754 -7.403064 -0.332783 -1.797903 2.226149 -7.704237 1.317419 -40.865746 -69.414420 -41.480401 24.630741 -27.481529 68.060260 -4.523520 -1.878949 18.117516 2.939373 5.332589 1.021693 -38.846277 63.785170 36.238405 27.578489 10.074440 -67.580842 -1.673587 -1.955606 -13.184382 -1.289689 5.058846 -2.909494 0.432933 -1.221603 -0.155461 -2.117682 -2.883049 3.267195 0.000001 0.000000 -0.000001 -4.295167 -2.203568 2.722938 8.015114 0.830794 -0.094239 -4.703168 4.894096 -1.201610 0.000000 0.000000 0.000000 
-310.755463 -0.599951 96.368347 -2.479828 1.691727 169.357901 1.002893 1.052465 -0.881530 -5.382726 0.506779 -0.339809 0.437707 0.506814 -0.339756 6.164735 0.352532 -0.291782 15.370893 -0.367289 -0.910657 -7.482731 -0.333467 -1.792406 2.228418 -7.697191 1.312399 -40.858311 -69.410978 -41.487945 24.622120 -27.483686 68.048505 -4.521438 -1.888372 18.121655 2.935525 5.339243 1.014871 -38.837159 63.785566 36.222447 27.579925 10.073741 -67.581389 -1.675495 -1.964650 -13.200968 -1.274951 5.072052 -2.908737 0.427708 -1.254067 -0.155581 -2.115551 -2.866018 3.273701 0.000000 -0.000000 0.000001 -4.284154 -2.215031 2.723666 8.022967 0.852664 -0.095475 -4.723591 4.872542 -1.192145 0.000004 -0.000000 -0.000000 
-310.755249 -0.592317 96.365685 -2.471885 1.687165 169.350784 1.003548 1.046062 -0.884616 -5.382426 0.504096 -0.341475 0.438006 0.504131 -0.341422 6.164957 0.350405 -0.292822 15.325695 -0.367821 -0.908032 -7.566689 -0.334795 -1.787945 2.231050 -7.689208 1.307667 -40.849487 -69.407023 -41.495971 24.611921 -27.485451 68.034367 -4.518731 -1.897742 18.125819 2.931116 5.346372 1.007576 -38.828546 63.786556 36.205911 27.582664 10.073060 -67.583130 -1.677231 -1.974361 -13.219324 -1.259512 5.085689 -2.907371 0.422593 -1.287204 -0.155273 -2.113348 -2.848758 3.280187 0.000004 0.000000 0.000002 -4.272337 -2.225995 2.729551 8.031454 0.873252 -0.100174 -4.744920 4.850744 -1.182855 0.000001 0.000000 -0.000000 
-310.755249 -0.584739 96.363197 -2.463968 1.682760 169.343284 1.004455 1.039883 -0.886894 -5.382013 0.501474 -0.342770 0.438420 0.501510 -0.342719 6.165266 0.348351 -0.293591 15.281367 -0.368843 -0.906135 -7.649034 -0.336763 -1.784992 2.233857 -7.680790 1.303579 -40.840225 -69.402980 -41.504334 24.600709 -27.486720 68.018999 -4.515555 -1.906097 18.129602 2.926392 5.353445 1.000308 -38.821067 63.787977 36.189945 27.586538 10.072459 -67.585897 -1.678568 -1.983742 -13.237725 -1.244550 5.098821 -2.905344 0.418007 -1.318707 -0.154767 -2.111325 -2.832472 3.286110 -0.000003 -0.000000 0.000002 -4.260688 -2.235585 2.740571 8.040028 0.890864 -0.108443 -4.765617 4.830321 -1.174466 0.000002 0.000000 -0.000001 
-310.755402 -0.577212 96.360863 -2.456045 1.678493 169.335416 1.005579 1.033916 -0.888462 -5.381503 0.498913 -0.343741 0.438931 0.498949 -0.343691 6.165647 0.346368 -0.294122 15.237932 -0.370258 -0.904843 -7.729717 -0.339237 -1.783289 2.236810 -7.672044 1.300055 -40.830482 -69.398820 -41.512787 24.588725 -27.487548 68.002511 -4.511997 -1.913678 18.133099 2.921438 5.360461 0.993089 -38.814582 63.789800 36.174512 27.591394 10.071928 -67.589564 -1.679597 -1.992959 -13.256308 -1.230007 5.111460 -2.902815 0.413869 -1.348677 -0.153996 -2.109412 -2.817093 3.291564 0.000000 0.000000 0.000001 -4.249159 -2.243993 2.755855 8.048629 0.905936 -0.119600 -4.785718 4.811122 -1.166858 0.000002 0.000000 0.000001 
